<?xml version="1.0" encoding="utf-8"?>
<!-- Generator: Adobe Illustrator 21.0.0, SVG Export Plug-In . SVG Version: 6.00 Build 0)  -->
<svg version="1.1" id="Layer_1" xmlns="http://www.w3.org/2000/svg" xmlns:xlink="http://www.w3.org/1999/xlink" x="0px" y="0px"
	 viewBox="0 0 512 512" style="enable-background:new 0 0 512 512;" xml:space="preserve">
<style type="text/css">
	.st0{fill:#01A0C6;}
	.st1{fill:#2176A2;}
	.st2{fill:#935635;}
	.st3{fill:#FFFFFF;}
	.st4{fill:#E6F3FF;}
	.st5{fill:#6DA544;}
	.st6{fill:#64933E;}
	.st7{fill:#FF9811;}
	.st8{fill:#EA8711;}
	.st9{fill:#0052B4;}
	.st10{fill:#004E9B;}
</style>
<circle class="st0" cx="256" cy="256" r="256"/>
<path class="st1" d="M512,256c0-4.9-0.2-9.8-0.4-14.6L384,113.8L136.8,237.9L128,431.4l75.1,75.1c17.1,3.6,34.8,5.5,52.9,5.5
	C397.4,512,512,397.4,512,256z"/>
<rect x="128" y="232.3" class="st2" width="28.4" height="199.1"/>
<rect x="128" y="113.8" class="st3" width="256" height="170.7"/>
<rect x="255.4" y="113.8" class="st4" width="128.6" height="170.7"/>
<rect x="128" y="227.6" class="st5" width="256" height="56.9"/>
<rect x="255.4" y="227.6" class="st6" width="128.6" height="56.9"/>
<rect x="128" y="113.8" class="st7" width="256" height="56.9"/>
<rect x="255.4" y="113.8" class="st8" width="128.6" height="56.9"/>
<circle class="st9" cx="256" cy="199.1" r="15.5"/>
<path class="st10" d="M256,183.6c-0.2,0-0.4,0-0.6,0v31c0.2,0,0.4,0,0.6,0c8.6,0,15.5-6.9,15.5-15.5
	C271.5,190.5,264.6,183.6,256,183.6z"/>
</svg>
